<?xml version="1.0" standalone="no"?>
<!DOCTYPE svg PUBLIC "-//W3C//DTD SVG 20010904//EN"
 "http://www.w3.org/TR/2001/REC-SVG-20010904/DTD/svg10.dtd">
<svg version="1.0" xmlns="http://www.w3.org/2000/svg"
 width="583.000000pt" height="86.000000pt" viewBox="0 0 583.000000 86.000000"
 preserveAspectRatio="xMidYMid meet">

<g transform="translate(0.000000,86.000000) scale(0.100000,-0.100000)"
fill="#000000" stroke="none">
<path d="M234 706 c1 -25 16 -26 16 0 0 26 29 15 33 -13 4 -26 4 -26 6 5 1 29
-2 32 -28 32 -24 0 -29 -4 -27 -24z"/>
<path d="M32 648 l3 -53 55 -3 c43 -2 61 -9 83 -29 15 -15 27 -37 27 -50 0
-18 6 -23 25 -23 20 0 25 5 25 25 0 19 -5 25 -23 25 -13 0 -37 14 -55 33 -27
28 -32 41 -32 80 l0 47 -56 0 -55 0 3 -52z"/>
<path d="M3833 678 c-50 -13 -73 -51 -73 -119 0 -70 15 -106 51 -125 102 -52
192 42 159 165 -18 69 -67 97 -137 79z m71 -54 c25 -24 22 -128 -5 -155 -20
-20 -51 -19 -73 2 -18 17 -20 117 -2 144 19 29 56 33 80 9z"/>
<path d="M2180 550 l0 -130 25 0 25 0 0 130 0 130 -25 0 -25 0 0 -130z"/>
<path d="M2282 553 l3 -128 25 0 c25 0 25 1 25 83 -1 45 2 82 5 82 3 0 27 -39
55 -86 44 -74 53 -84 75 -82 l25 3 3 128 3 127 -30 0 -30 0 -3 -82 -3 -83 -50
83 c-43 71 -53 82 -78 82 l-28 0 3 -127z"/>
<path d="M2566 659 c-31 -24 -35 -68 -8 -92 9 -8 40 -24 67 -35 59 -23 72 -54
31 -73 -20 -10 -30 -9 -51 5 -14 9 -25 21 -25 26 0 6 -11 10 -25 10 -29 0 -29
-1 -14 -33 14 -31 48 -47 103 -47 51 0 86 28 86 69 0 34 -14 47 -84 81 -56 28
-68 57 -28 71 18 7 28 4 48 -16 36 -36 73 -30 58 9 -17 45 -114 60 -158 25z"/>
<path d="M2760 660 c0 -16 7 -20 35 -20 l35 0 0 -110 0 -110 25 0 25 0 0 110
0 110 35 0 c28 0 35 4 35 20 0 19 -7 20 -95 20 -88 0 -95 -1 -95 -20z"/>
<path d="M2990 550 l0 -130 25 0 25 0 0 130 0 130 -25 0 -25 0 0 -130z"/>
<path d="M3070 661 c0 -16 8 -20 38 -23 l37 -3 3 -107 c3 -107 3 -108 27 -108
l25 0 0 110 0 110 35 0 c28 0 35 4 35 20 0 19 -7 20 -100 20 -92 0 -100 -1
-100 -19z"/>
<path d="M3300 575 c0 -99 2 -107 25 -130 34 -35 112 -35 152 -1 27 23 28 28
31 130 l4 106 -26 0 -26 0 0 -95 c0 -82 -3 -98 -20 -115 -25 -25 -52 -26 -73
-2 -13 15 -17 39 -17 115 0 97 0 97 -25 97 l-25 0 0 -105z"/>
<path d="M3540 660 c0 -16 7 -20 35 -20 l35 0 0 -110 0 -110 25 0 25 0 0 110
0 110 40 0 c33 0 40 3 40 20 0 19 -7 20 -100 20 -93 0 -100 -1 -100 -20z"/>
<path d="M4092 663 c2 -13 14 -19 41 -21 l37 -3 0 -110 0 -109 25 0 25 0 0
110 0 110 35 0 c28 0 35 4 35 20 0 19 -7 20 -101 20 -90 0 -100 -2 -97 -17z"/>
<path d="M4320 551 l0 -131 30 0 c30 0 30 1 30 55 0 54 1 55 28 55 35 0 52
-16 52 -51 0 -43 10 -59 37 -59 19 0 24 4 19 16 -3 9 -6 29 -6 45 0 16 -8 37
-18 47 -17 17 -17 19 0 37 23 24 23 57 -1 86 -16 20 -30 24 -95 27 l-76 4 0
-131z m128 77 c29 -29 2 -68 -47 -68 -18 0 -21 6 -21 40 0 37 2 40 28 40 15 0
33 -5 40 -12z"/>
<path d="M4625 668 c-3 -7 -20 -58 -39 -113 -19 -55 -38 -108 -42 -118 -6 -16
-2 -18 22 -15 21 2 30 10 34 28 5 21 12 25 49 28 39 3 43 1 54 -27 9 -24 17
-31 39 -31 l27 0 -30 88 c-60 175 -59 172 -85 172 -14 0 -27 -6 -29 -12z m50
-125 c6 -31 5 -33 -19 -33 -29 0 -34 21 -14 65 13 29 21 21 33 -32z"/>
<path d="M4800 675 c-1 -3 -1 -60 -1 -127 0 -117 1 -123 20 -126 20 -3 21 1
21 82 0 47 3 86 8 86 4 0 29 -39 57 -86 42 -72 53 -84 73 -82 23 3 24 5 24
128 0 119 -2 125 -21 128 -20 3 -21 -1 -21 -83 0 -47 -4 -84 -8 -81 -5 3 -31
41 -57 86 -39 63 -54 80 -72 80 -13 0 -23 -2 -23 -5z"/>
<path d="M5076 655 c-14 -13 -26 -30 -26 -37 0 -28 34 -61 86 -84 44 -19 54
-28 54 -48 0 -17 -7 -26 -25 -30 -30 -8 -65 8 -65 29 0 9 -10 15 -25 15 -32 0
-33 -23 0 -55 35 -36 115 -36 151 1 20 19 24 31 19 52 -9 36 -21 47 -80 70
-35 14 -51 26 -53 40 -7 43 65 50 82 7 8 -22 46 -19 46 4 0 57 -114 82 -164
36z"/>
<path d="M5290 550 l0 -130 25 0 25 0 0 130 0 130 -25 0 -25 0 0 -130z"/>
<path d="M5400 551 c0 -123 1 -131 19 -131 17 0 20 8 23 53 3 49 5 52 31 55
36 4 57 -13 57 -48 0 -44 10 -60 36 -60 23 0 24 2 18 43 -8 48 -20 77 -34 77
-6 0 -1 9 10 20 25 25 26 61 1 91 -16 19 -30 24 -90 27 l-71 4 0 -131z m120
74 c18 -21 8 -48 -21 -59 -38 -13 -59 -2 -59 32 0 16 3 32 7 35 12 12 60 7 73
-8z"/>
<path d="M5630 550 l0 -130 85 0 c78 0 85 2 85 20 0 18 -7 20 -61 20 l-60 0 3
38 c3 37 3 37 51 40 33 2 47 7 47 18 0 10 -13 14 -50 14 l-50 0 0 35 0 35 60
0 c53 0 60 2 60 20 0 18 -7 20 -85 20 l-85 0 0 -130z"/>
<path d="M300 656 c0 -2 8 -10 18 -17 15 -13 16 -12 3 4 -13 16 -21 21 -21 13z"/>
<path d="M362 550 c0 -19 2 -27 5 -17 2 9 2 25 0 35 -3 9 -5 1 -5 -18z"/>
<path d="M40 410 c0 -25 4 -30 25 -30 21 0 25 5 25 30 0 25 -4 30 -25 30 -21
0 -25 -5 -25 -30z"/>
<path d="M218 402 c-37 -3 -38 -4 -38 -43 0 -40 1 -40 33 -38 18 2 37 0 43 -3
8 -6 9 34 1 77 -1 6 -19 9 -39 7z"/>
<path d="M373 403 c9 -2 23 -2 30 0 6 3 -1 5 -18 5 -16 0 -22 -2 -12 -5z"/>
<path d="M2920 290 c-23 -23 -25 -39 -7 -64 19 -26 82 -19 82 9 0 14 -8 21
-25 23 -23 2 -24 2 -7 -12 16 -12 16 -14 1 -20 -22 -9 -46 13 -42 38 2 17 10
21 36 19 27 -1 31 1 21 13 -16 19 -36 17 -59 -6z"/>
<path d="M4392 294 c-44 -31 -20 -88 35 -82 35 4 48 48 14 48 -12 0 -21 -4
-21 -10 0 -5 5 -10 12 -10 8 0 9 -3 2 -10 -19 -19 -45 0 -42 29 3 23 7 26 36
24 27 -1 31 1 21 13 -15 18 -29 18 -57 -2z"/>
<path d="M2183 293 c13 -3 17 -15 17 -49 0 -28 4 -43 10 -39 6 3 10 24 10 45
0 28 5 40 18 43 9 3 -3 5 -28 5 -25 0 -37 -2 -27 -5z"/>
<path d="M2270 250 l0 -50 35 0 c19 0 35 5 35 10 0 6 -11 10 -25 10 -34 0 -32
28 3 33 l27 4 -27 2 c-17 0 -28 7 -28 15 0 8 12 17 28 19 22 3 20 4 -10 6
l-38 1 0 -50z"/>
<path d="M2370 274 c-14 -36 3 -64 40 -64 16 0 32 5 35 11 10 16 -4 24 -17 11
-29 -29 -58 10 -33 45 11 14 16 15 28 5 8 -7 18 -9 21 -4 8 14 -4 22 -36 22
-21 0 -31 -6 -38 -26z"/>
<path d="M2482 248 c1 -41 2 -45 5 -18 l5 35 29 -35 28 -35 0 55 c-1 43 -3 48
-8 25 l-7 -30 -18 28 c-27 40 -36 33 -34 -25z"/>
<path d="M2592 288 c-28 -28 -3 -88 37 -88 26 0 41 20 41 56 0 32 -13 44 -49
44 -9 0 -22 -5 -29 -12z m57 -12 c9 -11 10 -20 1 -36 -12 -23 -28 -23 -43 2
-22 34 17 65 42 34z"/>
<path d="M2702 253 c3 -42 6 -48 27 -51 13 -2 28 1 34 7 8 8 3 11 -16 11 -25
0 -27 3 -27 40 0 22 -5 40 -11 40 -6 0 -9 -19 -7 -47z"/>
<path d="M2802 288 c-7 -7 -12 -25 -12 -40 0 -34 41 -59 68 -41 21 12 28 59
11 79 -14 17 -51 18 -67 2z m53 -33 c0 -23 -4 -30 -20 -30 -21 0 -31 25 -21
51 11 28 41 12 41 -21z"/>
<path d="M3020 255 c0 -25 5 -45 10 -45 6 0 10 20 10 45 0 25 -4 45 -10 45 -5
0 -10 -20 -10 -45z"/>
<path d="M3081 263 c-8 -21 -16 -45 -19 -53 -4 -12 -1 -11 15 3 11 9 25 17 33
17 7 0 19 -8 26 -17 18 -25 17 -2 -2 47 -20 50 -36 51 -53 3z m36 -20 c-11
-10 -26 8 -20 23 5 15 7 14 15 -1 6 -9 7 -19 5 -22z"/>
<path d="M3222 253 c3 -46 4 -48 36 -51 18 -2 32 1 32 7 0 6 -11 11 -25 11
-34 0 -32 28 3 33 l27 4 -27 2 c-17 0 -28 7 -28 15 0 8 12 17 28 19 21 3 19 4
-11 6 l-38 1 3 -47z"/>
<path d="M3380 255 c0 -46 0 -46 33 -43 30 3 32 5 32 43 0 38 -2 40 -32 43
-33 3 -33 3 -33 -43z m50 25 c0 -5 -9 -10 -20 -10 -11 0 -20 5 -20 10 0 6 9
10 20 10 11 0 20 -4 20 -10z m5 -45 c0 -5 -10 -11 -22 -13 -16 -2 -23 2 -23
13 0 11 7 15 23 13 12 -2 22 -7 22 -13z"/>
<path d="M3480 255 c0 -25 5 -45 10 -45 6 0 10 20 10 45 0 25 -4 45 -10 45 -5
0 -10 -20 -10 -45z"/>
<path d="M3528 275 c-9 -19 -8 -29 6 -50 36 -55 105 -11 78 50 -16 35 -68 35
-84 0z m70 -11 c4 -29 -23 -51 -43 -34 -18 15 -19 32 -3 48 18 18 42 10 46
-14z"/>
<path d="M3652 293 c12 -3 18 -18 21 -51 l3 -47 2 47 c2 35 6 48 20 51 9 3 -1
5 -23 5 -22 0 -32 -2 -23 -5z"/>
<path d="M3740 250 l0 -50 35 0 c19 0 35 5 35 10 0 6 -11 10 -25 10 -32 0 -34
27 -2 33 l22 4 -22 2 c-33 2 -29 29 5 34 22 3 20 4 -10 6 l-38 1 0 -50z"/>
<path d="M3840 279 c-18 -33 2 -69 39 -69 16 0 31 6 35 15 6 18 -5 20 -21 4
-18 -18 -43 -3 -43 25 0 28 26 42 48 24 13 -11 14 -10 10 2 -8 25 -55 25 -68
-1z"/>
<path d="M3940 255 c0 -25 5 -45 10 -45 6 0 10 12 10 28 l1 27 29 -35 29 -35
1 53 c0 28 -4 52 -9 52 -4 0 -6 -11 -3 -25 2 -15 0 -25 -7 -25 -6 0 -17 11
-23 25 -19 41 -38 31 -38 -20z"/>
<path d="M4056 284 c-17 -45 1 -84 39 -84 28 0 45 19 45 50 0 14 -5 31 -12 38
-17 17 -65 15 -72 -4z m59 -29 c0 -23 -4 -30 -20 -30 -21 0 -31 25 -21 51 11
28 41 12 41 -21z"/>
<path d="M4172 253 c-2 -53 -2 -53 28 -53 17 0 30 5 30 10 0 6 -11 10 -24 10
-22 0 -25 5 -29 43 -3 40 -4 40 -5 -10z"/>
<path d="M4266 284 c-17 -45 1 -84 39 -84 28 0 45 19 45 50 0 14 -5 31 -12 38
-17 17 -65 15 -72 -4z m59 -15 c10 -30 -18 -57 -39 -39 -19 15 -20 32 -4 48
18 18 36 14 43 -9z"/>
<path d="M4490 249 c0 -31 4 -48 10 -44 6 3 10 26 10 51 0 24 -4 44 -10 44 -5
0 -10 -23 -10 -51z"/>
<path d="M4548 255 c-10 -25 -13 -45 -8 -45 5 0 12 5 15 10 10 16 42 12 49 -6
4 -9 9 -14 12 -11 9 9 -27 97 -40 97 -7 0 -19 -20 -28 -45z m32 -9 c-14 -14
-22 -2 -14 18 5 14 9 15 15 4 4 -7 4 -17 -1 -22z"/>
<path d="M4690 250 c0 -55 15 -64 58 -34 41 29 26 84 -24 84 l-34 0 0 -50z
m58 3 c-2 -17 -10 -29 -20 -31 -14 -3 -18 3 -18 27 0 25 4 31 21 31 16 0 20
-5 17 -27z"/>
<path d="M4807 293 c-12 -11 -8 -68 5 -81 15 -15 51 -15 66 0 7 7 12 24 12 38
0 14 -5 31 -12 38 -13 13 -60 16 -71 5z m58 -24 c10 -30 -18 -57 -39 -39 -19
15 -20 32 -4 48 18 18 36 14 43 -9z"/>
<path d="M4969 254 c-19 -45 -17 -77 2 -41 13 22 38 22 55 0 8 -11 13 -13 14
-6 0 21 -32 93 -41 93 -6 0 -19 -21 -30 -46z m41 -6 c0 -5 -4 -8 -10 -8 -5 0
-10 10 -10 23 0 18 2 19 10 7 5 -8 10 -18 10 -22z"/>
<path d="M5071 248 c1 -47 2 -49 8 -18 l6 35 12 -32 c7 -18 14 -33 17 -33 3 0
10 15 15 33 9 31 9 31 10 5 2 -51 21 -41 21 11 0 60 -24 72 -38 19 l-9 -33 -7
33 c-13 54 -36 41 -35 -20z"/>
<path d="M5201 258 c-18 -42 -17 -77 1 -44 12 21 37 20 54 -1 12 -16 13 -16
14 -2 0 25 -29 89 -41 89 -5 0 -18 -19 -28 -42z m39 -3 c0 -8 -4 -15 -10 -15
-5 0 -10 7 -10 15 0 8 5 15 10 15 6 0 10 -7 10 -15z"/>
<path d="M5313 293 l28 -4 -25 -34 c-14 -19 -26 -38 -26 -44 0 -14 67 -14 75
-1 4 6 -5 10 -19 10 -29 0 -33 12 -10 30 8 8 20 22 25 32 9 16 5 18 -33 17
-31 -2 -35 -3 -15 -6z"/>
<path d="M5396 284 c-17 -45 1 -84 39 -84 28 0 45 19 45 50 0 14 -5 31 -12 38
-17 17 -65 15 -72 -4z m61 -10 c7 -18 -6 -45 -25 -52 -18 -6 -36 37 -21 54 15
19 38 18 46 -2z"/>
<path d="M5500 256 c0 -25 5 -48 10 -51 6 -4 10 7 10 27 l1 33 29 -35 29 -35
1 53 c0 28 -4 52 -10 52 -5 0 -10 -12 -10 -27 l-1 -28 -17 28 c-25 41 -42 34
-42 -17z"/>
<path d="M5626 260 c-19 -49 -20 -72 -2 -47 15 19 41 23 51 7 17 -27 21 -5 6
35 -9 25 -21 45 -27 45 -7 0 -19 -18 -28 -40z m30 -17 c-10 -10 -19 5 -10 18
6 11 8 11 12 0 2 -7 1 -15 -2 -18z"/>
<path d="M5727 293 c-16 -15 -5 -35 24 -45 22 -8 28 -13 20 -21 -9 -9 -17 -8
-31 1 -11 7 -20 8 -20 3 0 -15 31 -29 51 -24 30 8 25 51 -6 59 -14 3 -25 11
-25 16 0 6 11 7 26 4 17 -5 23 -3 19 4 -7 11 -48 14 -58 3z"/>
<path d="M140 195 c0 -33 2 -35 35 -35 33 0 35 2 35 35 0 33 -2 35 -35 35 -33
0 -35 -2 -35 -35z"/>
<path d="M328 163 c6 -2 18 -2 25 0 6 3 1 5 -13 5 -14 0 -19 -2 -12 -5z"/>
</g>
</svg>
